<svg xmlns="http://www.w3.org/2000/svg" fill="none" width="54" height="24"><path d="M10.5 6.892H1.164V17.08H2.34V8.02H9.3v7.272c0 .552-.084.66-.78.696l-.96.072.312 1.092.96-.072c1.296-.096 1.668-.348 1.668-1.596V6.892Zm-1.776 3.312V9.16H2.952v1.044h5.772ZM3.528 11.26v3.984h4.584V11.26H3.528Zm1.068 1.032h2.448v1.932H4.596v-1.932Zm13.944-.84c.42-.864.696-1.536.924-2.208h2.148a55.963 55.963 0 0 0-.792 2.052l1.08.264c.18-.468.732-2.076.864-2.376V8.116h-2.952c.132-.468.24-.96.372-1.536l-1.104-.24c-.348 1.74-.804 3.216-1.524 4.56l.984.552Zm-3.816-2.016h-1.848v.924h4.776v-.924h-1.788v-.9h2.1V7.528h-2.1V6.472l-1.14-.048v1.104h-2.148v1.008h2.148v.9Zm5.808 2.328c.012-.24.024-.48.024-.732 0-.372.012-.948.012-1.26l-1.104-.048v1.296c0 2.448-.696 3.84-2.664 5.58l.864.876c1.164-1.068 1.92-2.112 2.388-3.348.516 1.332 1.332 2.388 2.436 3.348l.768-1.008c-1.524-1.164-2.484-2.676-2.724-4.704Zm-3.024.276v-1.008H13.02v1.008h4.488Zm.516 1.752v-1.056h-5.52v1.056h2.34v1.776c0 .516-.096.528-.6.588l-.564.048.36 1.116.588-.06c.996-.096 1.284-.288 1.284-1.296v-2.172h2.112Zm-.12 1.584c-.276-.468-.684-1.008-1.032-1.44l-.816.528c.348.42.756 1.008 1.032 1.524l.816-.612Zm-4.668-1.392c-.324.816-.768 1.68-1.152 2.316l.888.576c.432-.684.864-1.644 1.188-2.46l-.924-.432Zm20.364-.516c0 .444-.024.804-.084 1.344-.06.696-.252.768-.912.804a7.232 7.232 0 0 1-1.02 0c-.636-.036-.732-.168-.732-.816v-2.592c1.152-.84 2.796-2.172 3.78-3.156l-.816-.972c-.672.732-1.968 1.788-2.964 2.568V6.496l-1.236-.048v8.772c0 1.236.468 1.608 1.512 1.644.54.024 1.104.024 1.668 0 1.296-.06 1.716-.444 1.872-1.584.048-.384.096-1.032.096-1.416l-1.164-.396Zm-7.068 1.74v-4.2h2.652V9.796h-2.652v-3.18l-1.224-.048v8.652c0 .324 0 .468-.348.612l.528 1.224a78.3 78.3 0 0 1 3.768-1.62l-.096-1.296-2.628 1.068ZM42.18 6.196c-.648 1.728-1.836 3.228-3.576 4.5l.708 1.08c.468-.372.876-.72 1.248-1.092v1.68c0 2.04-.348 2.868-1.848 4.272l1.02.744c1.596-1.656 1.956-2.52 1.956-5.04v-1.62l-1.116-.048c.96-.96 1.608-1.92 2.124-3.132.768 1.824 1.98 3.072 3.6 4.128l.66-1.116c-1.644-.948-3.024-2.52-3.792-4.356h-.984Zm-3.804.156C37.8 8.2 36.732 10.18 35.64 11.668l.768 1.056c.348-.492.684-.996 1.008-1.524v5.952h1.152V9.064c.372-.768.684-1.548.936-2.352l-1.128-.36Zm5.208 10.788H44.7v-6.396l-1.116-.048v6.444Z" fill="#FFF"/><path d="M53.996 11.518a.209.209 0 0 1-.05.186l-4.199 4.282a.354.354 0 0 1-.508 0l-.13-.132a.374.374 0 0 1 0-.52l3.712-3.785-3.716-3.789a.374.374 0 0 1 0-.52l.13-.132a.354.354 0 0 1 .509 0l4.198 4.281c.033.035.051.08.054.13Z" fill-rule="evenodd" fill="#FFF"/></svg>